<svg id="Layer_1" xmlns="http://www.w3.org/2000/svg" viewBox="0 0 175.1 268.4">
  <style>
    .st0{fill:#CC152A;}
  </style>
  <path class="st0" d="M107.6 114.9V208c0 3.4-1.2 6.1-4.3 7.8-4.6 2.6-11.1-.4-11.5-5.7-.4-5.4-.2-10.9-.3-16.4 0-3-1.1-5.5-3.8-7.1-5.4-3.2-12.1.5-12.1 6.8-.1 7.2 0 14.4 0 21.7 0 15-.1 30 .1 44.9.1 5.3-4.9 9.8-10.5 8-2.8-.9-5.1-3.7-5.4-6.8-.1-.6 0-1.2 0-1.8V140.7 18.4c0-1.3.3-2.2 1.4-3.1 5.5-4.4 10.8-9 16.2-13.5 2.8-2.3 6.2-2.3 9 0 6.7 5.6 13.4 11.2 20.1 16.7.9.8 1.1 1.7 1.1 2.8v93.6zm-41-2.6v9.9c0 1.3.4 1.8 1.8 1.8 3.9-.1 7.7-.1 11.6 0 1.4 0 1.7-.5 1.7-1.8v-19.6c0-1.3-.4-1.8-1.8-1.8-3.9.1-7.7.1-11.6 0-1.3 0-1.8.4-1.7 1.8v9.7zm19.1.1v9.9c0 1.2.4 1.7 1.7 1.7h11.8c1.2 0 1.6-.5 1.6-1.6v-19.7c0-1.2-.4-1.8-1.7-1.7H87.5c-1.3 0-1.8.5-1.8 1.8v9.6zM74.1 96.8h6c.9 0 1.4-.3 1.4-1.3V83.1c0-.9-.4-1.4-1.3-1.4H68c-1 0-1.4.5-1.4 1.5v12.1c0 1.1.4 1.5 1.5 1.5 2-.1 4 0 6 0zm19.1 0h6.1c1 0 1.4-.4 1.4-1.4V83.3c0-1-.4-1.6-1.5-1.6H87.3c-1 0-1.6.4-1.6 1.5v12.3c0 1 .4 1.3 1.3 1.3 2.1-.1 4.2 0 6.2 0zM.1 70.5c0-2.7.9-4.8 2.9-6.5l27.3-22.8c1.3-1.1 1.9-2.2 1.8-3.9-.1-9.7 0-19.4 0-29.2 0-2.4.1-2.5 2.5-2.5h10c2.8 0 3 .1 3 3v188.1c0 3.9-2.1 7.2-5.2 8.1-5.9 1.8-10.5-2-10.4-7.4.2-7-.1-14 .1-21 .1-4.4-.4-9.3-4.8-11.4-2.1-1-11.8-2.5-11.8 8.5v55.1c0 3.2-1.2 5.8-4.1 7.4-5 2.8-11.4-.8-11.5-6.5m.1-48M119.7 29.7c4.2 3.5 8.2 6.8 12.1 10.1 10.8 9 21.5 18 32.3 27 2 1.7 3.1 3.7 3.1 6.3v51.6c0 .4-.1.8-.1 1.2.1.8.3 3.5.3 4.6-.2.2 0 2.9-.1 6.5-.2 11.6 0 23.2-.1 34.7 0 1.5.2 2.2 2 2.2 3.7.1 5.7 2.3 5.8 6.1v5.1c0 2.5-1.7 4.5-4 5.3l-18.3 6.3c-1.3.4-2.5.9-3.8 1.3-1.1.4-1.7 1.1-1.7 2.2 0 2-.1 3.9 0 5.9 0 .5.5 1.2 1 1.3 1.5.5 2.2 1.6 2.2 3.1v22.9c0 2-1.4 3.2-3.4 3.2-1.2 0-2.3.1-3.5 0-1.9-.2-3-1.3-3-3.3v-22.8c0-1.6.8-2.6 2.3-3.2.5-.2 1-.9 1-1.4.2-1.3.1-2.7.1-4 0-4.9 1.2-6.3 5.9-7.8 6.8-2.2 13.5-4.5 20.1-6.9.8-.3 1.6-1.5 1.7-2.4.3-1.8.2-3.6.1-5.4-.1-2.1-1.4-2.8-4.5-2.4v2.6c0 3.4-2.3 5.7-5.7 5.7h-36.2c-3.8 0-5.9-2.1-5.9-5.9 0-49.4 0-98.8.1-148.2.1-.2.2-.6.2-1.5zM151.5 157c0-2.3.1-4.7 0-7-.2-4.6-3.6-8.1-7.9-8.2-4.3-.1-8.1 3.4-8.3 7.8-.2 4.9 0 9.8-.1 14.6 0 1.1.5 1.4 1.5 1.4h13.2c1.1 0 1.5-.4 1.5-1.5.1-2.4.1-4.7.1-7.1zm-8 14h12.4c1.1 0 2.2.1 3.3-.1.5-.1.8-.6 1.3-.9-.4-.3-.8-.7-1.3-1-.2-.1-.5 0-.8 0h-30.1c-.4 0-.9 0-1.2.1-.3.2-.7.6-.7.9 0 .3.4.8.7.9.5.2 1 .1 1.6.1h14.8zm.3 39.7c-.3 0-.6-.1-.9-.1-.1.4-.4.8-.4 1.2v19.7c0 .4.3.8.5 1.2.2 0 .4-.1.7-.1.2-7.2.1-14.6.1-21.9z"/>
</svg>
